<mxfile host="app.diagrams.net" modified="2023-10-05T15:55:55.039Z" agent="Mozilla/5.0 (Windows NT 10.0; Win64; x64) AppleWebKit/537.36 (KHTML, like Gecko) Chrome/117.0.0.0 Safari/537.36" version="22.0.0" etag="DEiOGMH6c9QR4QppMt1m" type="github">
  <diagram name="Page-1" id="KMy-Kuei3qs2d9idpWOK">
    <mxGraphModel>
      <root>
        <mxCell id="0" />
        <mxCell id="1" parent="0" />
      </root>
    </mxGraphModel>
  </diagram>
</mxfile>
